<mxfile host="app.diagrams.net" modified="2020-08-13T03:33:44.481Z" agent="5.0 (Macintosh; Intel Mac OS X 10_11_2) AppleWebKit/537.36 (KHTML, like Gecko) Chrome/83.0.4103.116 Safari/537.36" etag="fUVNiA2wIbpggg4prTYS" version="13.6.2" type="github">
  <diagram id="C5RBs43oDa-KdzZeNtuy" name="Page-1">
    <mxGraphModel dx="950" dy="537" grid="1" gridSize="10" guides="1" tooltips="1" connect="1" arrows="1" fold="1" page="1" pageScale="1" pageWidth="827" pageHeight="1169" math="0" shadow="0">
      <root>
        <mxCell id="WIyWlLk6GJQsqaUBKTNV-0" />
        <mxCell id="WIyWlLk6GJQsqaUBKTNV-1" parent="WIyWlLk6GJQsqaUBKTNV-0" />
        <mxCell id="0ZVNkrV0dIpk6yWQDViK-0" value="RPCBean" style="swimlane;fontStyle=3;align=center;verticalAlign=top;childLayout=stackLayout;horizontal=1;startSize=26;horizontalStack=0;resizeParent=1;resizeParentMax=0;resizeLast=0;collapsible=1;marginBottom=0;" vertex="1" parent="WIyWlLk6GJQsqaUBKTNV-1">
          <mxGeometry x="250" y="140" width="370" height="300" as="geometry">
            <mxRectangle x="330" y="240" width="90" height="26" as="alternateBounds" />
          </mxGeometry>
        </mxCell>
        <mxCell id="0ZVNkrV0dIpk6yWQDViK-1" value="# serviceInterface : Class&lt;?&gt; 接口名(配置)&#xa;# protocol : RPCProtocol 通信协议类型(配置)&#xa;# mode : RPCMode=RPCMode.SYNC 通信模式&#xa;# preServiceName : String&#xa;# serviceName : String 实现类Bean名(配置)&#xa;# method : RequestMethod=RequestMethod.POST 请求方式&#xa;# properties : Properties = new Properties()" style="text;strokeColor=none;fillColor=none;align=left;verticalAlign=top;spacingLeft=4;spacingRight=4;overflow=hidden;rotatable=0;points=[[0,0.5],[1,0.5]];portConstraint=eastwest;" vertex="1" parent="0ZVNkrV0dIpk6yWQDViK-0">
          <mxGeometry y="26" width="370" height="114" as="geometry" />
        </mxCell>
        <mxCell id="0ZVNkrV0dIpk6yWQDViK-2" value="" style="line;strokeWidth=1;fillColor=none;align=left;verticalAlign=middle;spacingTop=-1;spacingLeft=3;spacingRight=3;rotatable=0;labelPosition=right;points=[];portConstraint=eastwest;" vertex="1" parent="0ZVNkrV0dIpk6yWQDViK-0">
          <mxGeometry y="140" width="370" height="8" as="geometry" />
        </mxCell>
        <mxCell id="0ZVNkrV0dIpk6yWQDViK-3" value="# getFinalProtocol(): RPCProtocol   &#xa;   最终Protocol&#xa;# pointConverUpper(String): String&#xa;   小数点改为驼峰&#xa;+ getPreServiceName(): String&#xa;   服务名前缀, 集群时返回空字符串&#xa;+ getUniqueName(): String&#xa;   唯一服务名, 未配置取接口全名&#xa;+ getFinalName(): String&#xa;   最终使用的服务名, 前缀+唯一服务名" style="text;strokeColor=none;fillColor=none;align=left;verticalAlign=top;spacingLeft=4;spacingRight=4;overflow=hidden;rotatable=0;points=[[0,0.5],[1,0.5]];portConstraint=eastwest;" vertex="1" parent="0ZVNkrV0dIpk6yWQDViK-0">
          <mxGeometry y="148" width="370" height="152" as="geometry" />
        </mxCell>
        <mxCell id="0ZVNkrV0dIpk6yWQDViK-9" value="Extends" style="endArrow=block;endSize=16;endFill=0;html=1;exitX=0.5;exitY=0;exitDx=0;exitDy=0;rounded=0;edgeStyle=orthogonalEdgeStyle;" edge="1" parent="WIyWlLk6GJQsqaUBKTNV-1" source="0ZVNkrV0dIpk6yWQDViK-4" target="0ZVNkrV0dIpk6yWQDViK-0">
          <mxGeometry width="160" relative="1" as="geometry">
            <mxPoint x="330" y="390" as="sourcePoint" />
            <mxPoint x="490" y="390" as="targetPoint" />
          </mxGeometry>
        </mxCell>
        <mxCell id="0ZVNkrV0dIpk6yWQDViK-4" value="RPCServiceBean" style="swimlane;fontStyle=1;align=center;verticalAlign=top;childLayout=stackLayout;horizontal=1;startSize=26;horizontalStack=0;resizeParent=1;resizeParentMax=0;resizeLast=0;collapsible=1;marginBottom=0;" vertex="1" parent="WIyWlLk6GJQsqaUBKTNV-1">
          <mxGeometry x="80" y="560" width="220" height="100" as="geometry" />
        </mxCell>
        <mxCell id="0ZVNkrV0dIpk6yWQDViK-5" value="- service: String 服务名(配置)&#xa; " style="text;strokeColor=none;fillColor=none;align=left;verticalAlign=top;spacingLeft=4;spacingRight=4;overflow=hidden;rotatable=0;points=[[0,0.5],[1,0.5]];portConstraint=eastwest;" vertex="1" parent="0ZVNkrV0dIpk6yWQDViK-4">
          <mxGeometry y="26" width="220" height="24" as="geometry" />
        </mxCell>
        <mxCell id="0ZVNkrV0dIpk6yWQDViK-6" value="" style="line;strokeWidth=1;fillColor=none;align=left;verticalAlign=middle;spacingTop=-1;spacingLeft=3;spacingRight=3;rotatable=0;labelPosition=right;points=[];portConstraint=eastwest;" vertex="1" parent="0ZVNkrV0dIpk6yWQDViK-4">
          <mxGeometry y="50" width="220" height="8" as="geometry" />
        </mxCell>
        <mxCell id="0ZVNkrV0dIpk6yWQDViK-7" value="+ getFinalProtocol(): RPCProtocol&#xa;   从properties中获取服务端通信协议" style="text;strokeColor=none;fillColor=none;align=left;verticalAlign=top;spacingLeft=4;spacingRight=4;overflow=hidden;rotatable=0;points=[[0,0.5],[1,0.5]];portConstraint=eastwest;" vertex="1" parent="0ZVNkrV0dIpk6yWQDViK-4">
          <mxGeometry y="58" width="220" height="42" as="geometry" />
        </mxCell>
        <mxCell id="0ZVNkrV0dIpk6yWQDViK-10" value="RPCClientBean" style="swimlane;fontStyle=1;align=center;verticalAlign=top;childLayout=stackLayout;horizontal=1;startSize=26;horizontalStack=0;resizeParent=1;resizeParentMax=0;resizeLast=0;collapsible=1;marginBottom=0;" vertex="1" parent="WIyWlLk6GJQsqaUBKTNV-1">
          <mxGeometry x="480" y="560" width="220" height="100" as="geometry" />
        </mxCell>
        <mxCell id="0ZVNkrV0dIpk6yWQDViK-11" value="- service: String 服务名(配置)&#xa; " style="text;strokeColor=none;fillColor=none;align=left;verticalAlign=top;spacingLeft=4;spacingRight=4;overflow=hidden;rotatable=0;points=[[0,0.5],[1,0.5]];portConstraint=eastwest;" vertex="1" parent="0ZVNkrV0dIpk6yWQDViK-10">
          <mxGeometry y="26" width="220" height="24" as="geometry" />
        </mxCell>
        <mxCell id="0ZVNkrV0dIpk6yWQDViK-12" value="" style="line;strokeWidth=1;fillColor=none;align=left;verticalAlign=middle;spacingTop=-1;spacingLeft=3;spacingRight=3;rotatable=0;labelPosition=right;points=[];portConstraint=eastwest;" vertex="1" parent="0ZVNkrV0dIpk6yWQDViK-10">
          <mxGeometry y="50" width="220" height="8" as="geometry" />
        </mxCell>
        <mxCell id="0ZVNkrV0dIpk6yWQDViK-13" value="+ getFinalProtocol(): RPCProtocol&#xa;   从properties中获取服务端通信协议" style="text;strokeColor=none;fillColor=none;align=left;verticalAlign=top;spacingLeft=4;spacingRight=4;overflow=hidden;rotatable=0;points=[[0,0.5],[1,0.5]];portConstraint=eastwest;" vertex="1" parent="0ZVNkrV0dIpk6yWQDViK-10">
          <mxGeometry y="58" width="220" height="42" as="geometry" />
        </mxCell>
      </root>
    </mxGraphModel>
  </diagram>
</mxfile>
